<svg width="89" height="89" viewBox="0 0 89 89" fill="none" xmlns="http://www.w3.org/2000/svg">
<path d="M86.5556 31.8877L57.7431 2.84103C55.0859 0.162284 50.7769 0.146527 48.0961 2.80575L2.84488 47.6922C0.164048 50.3514 0.144933 54.6604 2.80209 57.3392L31.6146 86.3858C34.2718 89.0646 38.5808 89.0803 41.2616 86.4211L86.5128 41.5346C89.1937 38.8754 89.2128 34.5664 86.5556 31.8877ZM53.1597 6.68311C55.2821 6.69087 55.7891 8.36489 55.752 9.49025L54.5477 34.504L80.142 35.1121C80.9778 35.1795 81.9405 35.6332 81.9685 36.5659C82.0609 37.4987 81.0599 38.4276 80.3199 38.5214L54.2639 40.4842L53.5946 53.6339L40.4721 54.1648L38.2986 80.204C38.1988 80.9432 37.2619 81.9367 36.3297 81.8368C35.3973 81.8012 34.9514 80.8349 34.8908 79.9986L34.4899 54.4001L9.4672 55.402C8.34158 55.43 6.67172 54.9094 6.68113 52.7871C6.69055 50.6647 8.30095 50.0918 9.97366 49.9693L46.2634 46.2432L50.3154 9.95272C50.4514 8.28106 51.0374 6.67535 53.1597 6.68311Z" fill="#FFD700"/>
</svg>
