<svg width="66" height="65" viewBox="0 0 66 65" fill="none" xmlns="http://www.w3.org/2000/svg">
<path d="M27.4343 37.9578C31.4799 42.0852 36.375 45.2717 41.7757 47.2937L49.082 41.4466C49.2987 41.2966 49.5555 41.2162 49.8185 41.2162C50.0815 41.2162 50.3383 41.2966 50.5549 41.4466L64.1211 50.2367C64.6362 50.5481 65.0721 50.9757 65.3946 51.4857C65.7171 51.9956 65.9173 52.574 65.9793 53.1751C66.0413 53.7763 65.9635 54.3837 65.752 54.9494C65.5405 55.5151 65.2012 56.0235 64.7607 56.4347L58.404 62.7495C57.4936 63.6541 56.3747 64.318 55.1472 64.6819C53.9196 65.0458 52.6216 65.0984 51.3689 64.835C38.8729 62.2395 27.3551 56.1608 18.1318 47.2937C9.11312 38.3384 2.87227 26.9435 0.166255 14.4914C-0.101065 13.2512 -0.0452713 11.9624 0.328228 10.7502C0.701726 9.53799 1.38026 8.44334 2.29808 7.57237L8.88737 1.17953C9.29513 0.758127 9.79241 0.434953 10.342 0.234208C10.8915 0.0334632 11.4791 -0.0396501 12.0607 0.0203429C12.6423 0.0803358 13.2029 0.27188 13.7005 0.580634C14.1981 0.889388 14.6198 1.30735 14.934 1.80322L23.9652 15.2711C24.121 15.4825 24.2051 15.7388 24.2051 16.0019C24.2051 16.2651 24.121 16.5213 23.9652 16.7328L18.0155 23.9248C20.0806 29.2475 23.298 34.0411 27.4343 37.9578Z" fill="#FFD700"/>
</svg>
