<svg width="77" height="77" viewBox="0 0 77 77" fill="none" xmlns="http://www.w3.org/2000/svg">
<path fill-rule="evenodd" clip-rule="evenodd" d="M77 38.5C77 59.7616 59.7616 77 38.5 77C17.2384 77 0 59.7616 0 38.5C0 17.2384 17.2384 0 38.5 0C59.7616 0 77 17.2384 77 38.5ZM39.8796 28.4226C36.1355 29.9787 28.6504 33.203 17.4277 38.0925C15.6053 38.8176 14.6493 39.5267 14.5626 40.2197C14.415 41.3939 15.8845 41.8559 17.88 42.4815C18.1528 42.5682 18.4351 42.6548 18.7238 42.751C20.6905 43.3895 23.3342 44.137 24.7074 44.1659C25.9554 44.1916 27.3478 43.6782 28.8846 42.6259C39.3695 35.5451 44.7819 31.9678 45.122 31.8908C45.3626 31.8363 45.6963 31.7657 45.9209 31.9678C46.1455 32.1667 46.123 32.5453 46.1005 32.648C45.953 33.2672 40.1972 38.6219 37.2135 41.3939C36.283 42.257 35.6253 42.8698 35.4906 43.0109C35.189 43.3221 34.881 43.6205 34.5858 43.906C32.7571 45.6642 31.3903 46.986 34.6628 49.142C36.2349 50.1783 37.4926 51.035 38.747 51.8884C40.117 52.822 41.4837 53.7524 43.2547 54.9138C43.7039 55.209 44.1338 55.5138 44.5541 55.8122C46.1487 56.9511 47.5828 57.9714 49.3538 57.811C50.3805 57.7147 51.4456 56.749 51.9846 53.8647C53.2583 47.0438 55.7672 32.2726 56.348 26.1832C56.3833 25.6776 56.3618 25.1697 56.2838 24.6689C56.2371 24.2644 56.0401 23.8922 55.732 23.6262C55.2732 23.2508 54.5609 23.1706 54.2401 23.177C52.7931 23.2027 50.573 23.9759 39.8796 28.4226Z" fill="#FFD700"/>
</svg>
